<svg width="40" height="40" viewBox="0 0 40 40" fill="none" xmlns="http://www.w3.org/2000/svg">
<g clip-path="url(#clip0_2534_2)">
<path d="M26.2593 25.082L24.4136 15.3559C24.3223 14.8753 23.9024 14.5276 23.4132 14.5276H4.71486C4.22572 14.5276 3.80568 14.8753 3.71443 15.356L1.86889 25.082C0.737555 25.8946 0 27.2207 0 28.7199V33.5702C0 34.4957 0.750288 35.246 1.67578 35.246H2.47514V37.3881C2.47514 38.7458 3.57584 39.8464 4.93344 39.8464C6.29104 39.8464 7.39173 38.7457 7.39173 37.3881V35.246H20.7366V37.3881C20.7366 38.7458 21.8373 39.8464 23.1949 39.8464C24.5525 39.8464 25.6532 38.7457 25.6532 37.3881V35.246H26.4525C27.378 35.246 28.1283 34.4957 28.1283 33.5702V28.7199C28.128 27.2208 27.3905 25.8946 26.2593 25.082ZM4.86314 32.4015C3.57438 32.4015 2.54238 31.3538 2.54238 30.0808C2.54238 28.7991 3.58141 27.7601 4.86314 27.7601C6.13918 27.7601 7.17422 28.7899 7.1835 30.0637C7.1835 30.0694 7.1839 30.075 7.1839 30.0808C7.18377 31.3624 6.14488 32.4015 4.86314 32.4015ZM20.4576 20.1213C19.9047 20.1213 15.6875 20.1213 15.1352 20.1213C13.8479 20.1213 12.7955 21.1685 12.7891 22.4557L12.7809 24.2426H4.47745C4.34947 24.2426 4.22294 24.2492 4.0976 24.2597L5.55786 16.5639H15.9331C15.8159 16.8224 15.7499 17.1091 15.7499 17.4115C15.7499 18.5463 16.6699 19.4662 17.8046 19.4662C18.9394 19.4662 19.8593 18.5463 19.8593 17.4115C19.8593 17.1091 19.7934 16.8224 19.6762 16.5639H22.5698L24.0302 24.2597C23.7676 24.2377 23.7162 24.2426 22.8118 24.2426L22.8036 22.4557C22.7975 21.1684 21.7449 20.1213 20.4576 20.1213ZM23.2649 32.4015C21.9832 32.4015 20.9441 31.3624 20.9441 30.0808C20.9441 30.0751 20.9445 30.0694 20.9445 30.0637C20.9538 28.7899 21.9889 27.7601 23.2649 27.7601C24.5466 27.7601 25.5856 28.7991 25.5856 30.0808C25.5856 31.3543 24.5531 32.4015 23.2649 32.4015Z" fill="#007BE5"/>
<path d="M27.9392 14.3836L27.4922 14.7637C27.1058 15.0922 26.9708 15.6296 27.1561 16.1018L27.9861 18.2174L27.9857 17.8123C27.9847 16.4889 28.492 15.2866 29.327 14.3826L27.9392 14.3836Z" fill="#007BE5"/>
<path d="M36.7307 14.3765C37.5529 15.2638 38.0469 16.4253 38.0753 17.6933L39.728 14.0262C39.4226 14.2451 39.0488 14.3747 38.6452 14.3749L36.7307 14.3765Z" fill="#007BE5"/>
<path d="M32.8889 4.25422C34.0213 4.25422 34.9393 3.33625 34.9393 2.20389C34.9393 1.07153 34.0213 0.153564 32.8889 0.153564C31.7566 0.153564 30.8386 1.07153 30.8386 2.20389C30.8386 3.33625 31.7566 4.25422 32.8889 4.25422Z" fill="#007BE5"/>
<path d="M33.034 19.5955C33.0336 19.5955 33.0334 19.5955 33.033 19.5955C32.3515 19.5961 31.7995 20.1489 31.8 20.8303L31.8038 25.4648C31.8043 26.1458 32.3566 26.6977 33.0376 26.6977C33.038 26.6977 33.0383 26.6977 33.0387 26.6977C33.7201 26.6972 34.2721 26.1444 34.2716 25.4629L34.2679 20.8284C34.2674 20.1473 33.715 19.5955 33.034 19.5955Z" fill="#007BE5"/>
<path d="M34.4388 14.1857C34.7515 13.9208 34.9747 13.5882 35.1002 13.218L38.4678 13.2154C39.212 13.702 40.1824 13.0273 39.9701 12.1537C39.4844 10.1557 40.0733 12.5782 39.0084 8.19704C38.9584 7.9912 38.8438 7.80697 38.6812 7.67129L35.7731 5.24337C35.6934 5.17692 35.4181 5.04747 35.2865 5.02559C34.9985 4.97758 30.6004 5.02453 30.5141 5.03607C30.2857 5.04946 30.1703 5.10981 29.9775 5.28647L26.8438 8.15659C26.6721 8.31402 26.5612 8.52689 26.5311 8.75806C26.1516 11.6641 26.2791 10.6876 26.0646 12.3305C25.9487 13.2183 26.9818 13.7867 27.6709 13.224L30.9566 13.2213C31.0957 13.6168 31.3294 13.9463 31.6196 14.1875C30.1654 14.7551 29.1438 16.1693 29.1452 17.8111L29.1487 22.118C29.1492 22.6012 29.5411 22.9993 30.0307 22.9993C30.0309 22.9993 30.0311 22.9993 30.0313 22.9993L30.6418 22.9988L30.6401 20.8311C30.639 19.511 31.7054 18.4366 33.0327 18.4355H33.0338C34.3525 18.4355 35.4263 19.5084 35.4274 20.8273L35.4291 22.995L36.0301 22.9944H36.0397C36.5268 22.994 36.9215 22.5988 36.9211 22.1118V22.1083L36.9176 17.8049C36.9167 16.1901 35.9179 14.7606 34.4388 14.1857ZM30.9556 11.8084L28.1281 11.8107C28.2558 10.8321 28.2037 11.2315 28.4465 9.37214L30.2809 7.69185L30.2873 10.5918C30.9028 9.71419 31.9157 9.1655 33.0256 9.16457H33.0274C34.0028 9.16471 34.9044 9.58859 35.5269 10.2874L35.5209 7.61028L37.163 8.98115C37.7442 11.3717 37.4728 10.2559 37.8489 11.8028L35.0978 11.805C34.8034 10.9426 33.9807 10.3243 33.0255 10.3243C32.0811 10.3252 31.254 10.9337 30.9556 11.8084ZM33.0281 13.5423H33.0272C32.4603 13.5423 31.9986 13.081 31.9982 12.5141C31.9978 11.9468 32.4591 11.4847 33.0273 11.4843C33.5942 11.4843 34.0559 11.9456 34.0563 12.5126C34.0568 13.0813 33.5968 13.5418 33.0281 13.5423Z" fill="#007BE5"/>
</g>
<defs>
<clipPath id="clip0_2534_2">
<rect width="40" height="40" fill="white"/>
</clipPath>
</defs>
</svg>
